HIERARCHY
ROOT hip
{
  OFFSET 0 0 0
  CHANNELS 6 Xposition Yposition Zposition Zrotation Yrotation Xrotation
  JOINT abdomen
  {
    OFFSET 0 20.6881 -0.73152
    CHANNELS 3 Zrotation Xrotation Yrotation
    JOINT chest
    {
      OFFSET 0 11.7043 -0.48768
      CHANNELS 3 Zrotation Xrotation Yrotation
      JOINT neck
      {
        OFFSET 0 22.1894 -2.19456
        CHANNELS 3 Zrotation Xrotation Yrotation
        JOINT head
        {
          OFFSET -0.24384 7.07133 1.2192
          CHANNELS 3 Zrotation Xrotation Yrotation
          JOINT leftEye
          {
            OFFSET 4.14528 8.04674 8.04672
            CHANNELS 3 Zrotation Xrotation Yrotation
            End Site
            {
              OFFSET 1 0 0
            }
          }
          JOINT rightEye
          {
            OFFSET -3.6576 8.04674 8.04672
            CHANNELS 3 Zrotation Xrotation Yrotation
            End Site
            {
              OFFSET 1 0 0
            }
          }
        }
      }
      JOINT rCollar
      {
        OFFSET -2.68224 19.2634 -4.8768
        CHANNELS 3 Zrotation Xrotation Yrotation
        JOINT rShldr
        {
          OFFSET -8.77824 -1.95073 1.46304
          CHANNELS 3 Zrotation Xrotation Yrotation
          JOINT rForeArm
          {
            OFFSET -28.1742 -1.7115 0.48768
            CHANNELS 3 Zrotation Xrotation Yrotation
            JOINT rHand
            {
              OFFSET -22.5879 0.773209 7.07136
              CHANNELS 3 Zrotation Xrotation Yrotation
              JOINT rThumb1
              {
                OFFSET -1.2192 -0.487915 3.41376
                CHANNELS 3 Zrotation Xrotation Yrotation
                JOINT rThumb2
                {
                  OFFSET -3.37035 -0.52449 3.41376
                  CHANNELS 3 Zrotation Xrotation Yrotation
                  End Site
                  {
                    OFFSET -1.78271 -1.18214 1.43049
                  }
                }
              }
              JOINT rIndex1
              {
                OFFSET -7.75947 0.938293 5.60832
                CHANNELS 3 Zrotation Xrotation Yrotation
                JOINT rIndex2
                {
                  OFFSET -2.54057 -0.884171 1.56538
                  CHANNELS 3 Zrotation Xrotation Yrotation
                  End Site
                  {
                    OFFSET -1.62519 -0.234802 1.16502
                  }
                }
              }
              JOINT rMid1
              {
                OFFSET -8.24714 1.18213 3.41376
                CHANNELS 3 Zrotation Xrotation Yrotation
                JOINT rMid2
                {
                  OFFSET -3.10165 -0.590103 1.0647
                  CHANNELS 3 Zrotation Xrotation Yrotation
                  End Site
                  {
                    OFFSET -2.48547 -0.328903 0.83742
                  }
                }
              }
              JOINT rRing1
              {
                OFFSET -8.82822 0.546677 1.51678
                CHANNELS 3 Zrotation Xrotation Yrotation
                JOINT rRing2
                {
                  OFFSET -2.60934 -0.819778 -0.0198488
                  CHANNELS 3 Zrotation Xrotation Yrotation
                  End Site
                  {
                    OFFSET -2.33842 -0.294052 0.168128
                  }
                }
              }
              JOINT rPinky1
              {
                OFFSET -8.27202 -0.0477905 -0.4584
                CHANNELS 3 Zrotation Xrotation Yrotation
                JOINT rPinky2
                {
                  OFFSET -1.82734 -0.647385 -0.700984
                  CHANNELS 3 Zrotation Xrotation Yrotation
                  End Site
                  {
                    OFFSET -1.69225 -0.51767 -0.607171
                  }
                }
              }
            }
          }
        }
      }
      JOINT lCollar
      {
        OFFSET 2.68224 19.2634 -4.8768
        CHANNELS 3 Zrotation Xrotation Yrotation
        JOINT lShldr
        {
          OFFSET 8.77824 -1.95073 1.46304
          CHANNELS 3 Zrotation Xrotation Yrotation
          JOINT lForeArm
          {
            OFFSET 28.1742 -1.7115 0.48768
            CHANNELS 3 Zrotation Xrotation Yrotation
            JOINT lHand
            {
              OFFSET 22.5879 0.773209 7.07136
              CHANNELS 3 Zrotation Xrotation Yrotation
              JOINT lThumb1
              {
                OFFSET 1.2192 -0.487915 3.41376
                CHANNELS 3 Zrotation Xrotation Yrotation
                JOINT lThumb2
                {
                  OFFSET 3.37035 -0.52449 3.41376
                  CHANNELS 3 Zrotation Xrotation Yrotation
                  End Site
                  {
                    OFFSET 1.78271 -1.18214 1.43049
                  }
                }
              }
              JOINT lIndex1
              {
                OFFSET 7.75947 0.938293 5.60832
                CHANNELS 3 Zrotation Xrotation Yrotation
                JOINT lIndex2
                {
                  OFFSET 2.54057 -0.884171 1.56538
                  CHANNELS 3 Zrotation Xrotation Yrotation
                  End Site
                  {
                    OFFSET 1.62519 -0.234802 1.16502
                  }
                }
              }
              JOINT lMid1
              {
                OFFSET 8.24714 1.18213 3.41376
                CHANNELS 3 Zrotation Xrotation Yrotation
                JOINT lMid2
                {
                  OFFSET 3.10165 -0.590103 1.0647
                  CHANNELS 3 Zrotation Xrotation Yrotation
                  End Site
                  {
                    OFFSET 2.48547 -0.328903 0.83742
                  }
                }
              }
              JOINT lRing1
              {
                OFFSET 8.82822 0.546677 1.51678
                CHANNELS 3 Zrotation Xrotation Yrotation
                JOINT lRing2
                {
                  OFFSET 2.60934 -0.819778 -0.0198488
                  CHANNELS 3 Zrotation Xrotation Yrotation
                  End Site
                  {
                    OFFSET 2.33842 -0.294052 0.168128
                  }
                }
              }
              JOINT lPinky1
              {
                OFFSET 8.27202 -0.0477905 -0.4584
                CHANNELS 3 Zrotation Xrotation Yrotation
                JOINT lPinky2
                {
                  OFFSET 1.82734 -0.647385 -0.700984
                  CHANNELS 3 Zrotation Xrotation Yrotation
                  End Site
                  {
                    OFFSET 1.69225 -0.51767 -0.607171
                  }
                }
              }
            }
          }
        }
      }
    }
  }
  JOINT rButtock
  {
    OFFSET -8.77824 4.35084 1.2192
    CHANNELS 3 Zrotation Xrotation Yrotation
    JOINT rThigh
    {
      OFFSET 0 -1.70687 -2.19456
      CHANNELS 3 Zrotation Xrotation Yrotation
      JOINT rShin
      {
        OFFSET 0 -36.8199 0.73152
        CHANNELS 3 Zrotation Xrotation Yrotation
        JOINT rFoot
        {
          OFFSET 0.73152 -45.1104 -5.12064
          CHANNELS 3 Zrotation Xrotation Yrotation
          End Site
          {
            OFFSET -1.1221 -3.69964 12.103
          }
        }
      }
    }
  }
  JOINT lButtock
  {
    OFFSET 8.77824 4.35084 1.2192
    CHANNELS 3 Zrotation Xrotation Yrotation
    JOINT lThigh
    {
      OFFSET 0 -1.70687 -2.19456
      CHANNELS 3 Zrotation Xrotation Yrotation
      JOINT lShin
      {
        OFFSET 0 -36.8199 0.73152
        CHANNELS 3 Zrotation Xrotation Yrotation
        JOINT lFoot
        {
          OFFSET -0.73152 -45.1104 -5.12064
          CHANNELS 3 Zrotation Xrotation Yrotation
          End Site
          {
            OFFSET 1.1221 -3.69964 12.103
          }
        }
      }
    }
  }
}
MOTION
Frames:	4
Frame Time:	0.00833333
4.00924 82.4855 56.7448 0.0 0.0 0.0 -4.35902 0.006295 -0.117464 -1.20167 0.0324815 -0.207695 -3.53799e-15 -1.59028e-15 -9.93923e-17 -9.86158e-15 3.18055e-15 -4.48819e-16 -0.0 0.0 0.0 -0.0 0.0 0.0 -1.6438e-15 -4.25912e-16 4.96962e-17 -3.21059e-14 -7.85821e-15 -5.96354e-16 -6.40136e-13 -9.54166e-14 -2.8625e-14 -6.96368e-12 -1.61518e-12 -2.57625e-13 -1.65146e-11 -3.7128e-12 -6.36111e-13 -2.85336e-11 -6.41518e-12 -1.09968e-12 -1.65099e-11 -3.7125e-12 -6.58375e-13 7.73091 5.47488 0.417314 -1.65158e-11 -3.71379e-12 -6.39292e-13 2.90554 0.965183 0.102902 -1.6511e-11 -3.7134e-12 -6.40087e-13 10.2786 0.731801 0.0259123 -1.65202e-11 -3.70892e-12 -6.3293e-13 2.22167 -0.733487 -0.20892 -1.6363e-15 -4.18147e-16 -1.49089e-16 -3.78896e-14 -7.98866e-15 -2.38542e-15 -5.78811e-13 -4.6456e-13 -1.27222e-14 -7.07606e-12 -1.24588e-12 -2.8943e-13 -1.66072e-11 -3.7106e-12 -6.52014e-13 -2.86687e-11 -6.40882e-12 -1.12274e-12 -1.66128e-11 -3.70972e-12 -6.48833e-13 -7.73091 5.47488 -0.417314 -1.66079e-11 -3.71081e-12 -6.58375e-13 -2.90554 0.965183 -0.102902 -1.66142e-11 -3.71032e-12 -6.48833e-13 -10.2786 0.731801 -0.0259123 -1.66029e-11 -3.70892e-12 -6.48833e-13 -2.22167 -0.733487 0.20892 -2.03217e-16 0.0 -3.88251e-19 -2.89112 -1.94436 0.0304643 -0.00795178 -2.07874 -0.0649085 -0.419339 4.00218 0.126684 2.03217e-16 0.0 3.88251e-19 -3.72529 -11.2507 0.48379 -0.0143133 14.7726 -0.388799 0.544734 -3.54245 0.0125183
1.56869 82.2733 54.5651 -10.3059 -1.0788 9.5299 -1.75645 -2.89632 1.35374 -2.24323 -2.35809 0.04213 -1.58924 2.32823 -3.08692 4.20626 -1.51752 -5.79074 -0.0 0.0 0.0 -0.0 0.0 0.0 -1.1512e-13 -1.34576e-13 6.87644e-14 23.897 -8.16002 -3.82972 -2.64086 -0.997404 4.31861 0.681491 18.5136 2.1387 -1.29988e-09 6.73609e-12 1.49779e-09 -2.14594e-09 -5.57993e-11 2.63513e-09 -1.29987e-09 6.73255e-12 1.49778e-09 7.73091 5.47488 0.417314 -1.29987e-09 6.73222e-12 1.49779e-09 2.90554 0.965183 0.102902 -1.29987e-09 6.73312e-12 1.49779e-09 10.2786 0.731801 0.0259123 -1.29988e-09 6.73679e-12 1.4978e-09 2.22167 -0.733487 -0.20892 -1.15146e-13 -1.3457e-13 6.85349e-14 -22.874 -4.04597 3.3836 3.27566 -1.33984 -5.26623 -0.105708 7.22523 -0.986552 1.23096e-09 -1.43188e-10 -7.66145e-10 2.11102e-09 -2.54852e-10 -1.34882e-09 1.23095e-09 -1.43186e-10 -7.66142e-10 -7.73091 5.47488 -0.417314 1.23096e-09 -1.43187e-10 -7.6615e-10 -2.90554 0.965183 -0.102902 1.23095e-09 -1.43187e-10 -7.66144e-10 -10.2786 0.731801 -0.0259123 1.23096e-09 -1.43186e-10 -7.66147e-10 -2.22167 -0.733487 0.20892 -2.03217e-16 0.0 -3.88251e-19 -0.694205 -2.5608 7.90225 0.00402637 -2.03092 0.0401972 -0.976101 1.09346 -8.14536 2.03217e-16 0.0 3.88251e-19 -3.40164 -9.87739 -13.1199 0.000925573 14.0891 -0.14487 2.00138 -12.02 15.6858
1.56963 82.2747 54.5671 -10.2977 -1.103 9.523 1.17031 -5.93573 2.93196 -3.33664 -4.89043 0.308934 -2.97956 4.75583 -6.37178 8.31448 -3.06408 -11.9369 -0.0 0.0 0.0 -0.0 0.0 0.0 -2.37695e-13 -2.86139e-13 1.45569e-13 47.9468 -16.6962 -8.14681 -5.26929 -2.03274 8.88763 -0.470534 38.093 5.3118 -2.74653e-09 3.394e-11 3.14365e-09 -4.53516e-09 -8.36725e-11 5.53245e-09 -2.74652e-09 3.39323e-11 3.14364e-09 7.73091 5.47488 0.417314 -2.74653e-09 3.39329e-11 3.14365e-09 2.90554 0.965183 0.102902 -2.74653e-09 3.39344e-11 3.14365e-09 10.2786 0.731801 0.0259123 -2.74654e-09 3.39372e-11 3.14365e-09 2.22167 -0.733487 -0.20892 -2.37758e-13 -2.86134e-13 1.45305e-13 -46.5169 -8.28188 7.00779 6.46722 -2.71564 -10.8351 0.0618017 14.8784 -2.08616 2.5923e-09 -3.12005e-10 -1.6494e-09 4.44495e-09 -5.55195e-10 -2.90221e-09 2.5923e-09 -3.12002e-10 -1.6494e-09 -7.73091 5.47488 -0.417314 2.5923e-09 -3.12003e-10 -1.64941e-09 -2.90554 0.965183 -0.102902 2.5923e-09 -3.12003e-10 -1.6494e-09 -10.2786 0.731801 -0.0259123 2.59231e-09 -3.12003e-10 -1.64941e-09 -2.22167 -0.733487 0.20892 -2.03217e-16 0.0 -3.88251e-19 1.82682 -3.11448 16.2651 0.0163666 -1.98697 0.150846 -2.46746 -1.87547 -16.925 2.03217e-16 0.0 3.88251e-19 -2.34656 -7.95456 -27.3578 0.0233984 13.3627 0.110878 8.52924 -18.5379 33.4657
1.56821 82.2747 54.5657 -10.299 -1.124 9.5331 3.89976 -8.67938 4.34075 -4.26348 -7.13892 0.545905 -4.01407 6.90337 -9.32129 11.712 -4.36689 -17.4183 -0.0 0.0 0.0 -0.0 0.0 0.0 -3.42072e-13 -4.02877e-13 2.06194e-13 68.1809 -24.0217 -12.4676 -7.47527 -2.9243 12.9711 -4.70869 55.1088 10.6775 -3.8666e-09 2.76339e-11 4.49465e-09 -6.38076e-09 -1.54567e-10 7.90758e-09 -3.86658e-09 2.76227e-11 4.49465e-09 7.73091 5.47488 0.417314 -3.86659e-09 2.76242e-11 4.49465e-09 2.90554 0.965183 0.102902 -3.86659e-09 2.76262e-11 4.49465e-09 10.2786 0.731801 0.0259123 -3.86661e-09 2.76282e-11 4.49466e-09 2.22167 -0.733487 -0.20892 -3.42166e-13 -4.02874e-13 2.05903e-13 -67.1698 -11.9668 10.3529 9.09705 -3.88391 -15.8317 0.477113 21.649 -3.1592 3.72608e-09 -4.22141e-10 -2.29713e-09 6.3904e-09 -7.51738e-10 -4.04422e-09 3.72608e-09 -4.22138e-10 -2.29713e-09 -7.73091 5.47488 -0.417314 3.72609e-09 -4.22139e-10 -2.29713e-09 -2.90554 0.965183 -0.102902 3.72609e-09 -4.2214e-10 -2.29714e-09 -10.2786 0.731801 -0.0259123 3.72609e-09 -4.22139e-10 -2.29714e-09 -2.22167 -0.733487 0.20892 -2.03217e-16 0.0 -3.88251e-19 4.18732 -3.54277 23.67 0.027456 -1.93526 0.25039 -4.5393 -4.26115 -24.7574 2.03217e-16 0.0 3.88251e-19 -0.768861 -6.07509 -39.9843 0.0493039 12.7213 0.338672 17.6883 -20.5434 50.1627
